<svg width="479" height="855" viewBox="0 0 479 855" fill="none" xmlns="http://www.w3.org/2000/svg">
<path d="M10 445C4.47714 445 0 440.523 0 435L0 137.19C56.7596 53.4411 142.968 0 239.5 0C336.032 0 422.24 53.4411 479 137.19L479 435C479 440.523 474.523 445 469 445L10 445Z" fill="#0F0F0F"/>
<path d="M22 458C16.4771 458 12 453.523 12 448L12 150.19C66.0341 66.4405 148.103 12.9991 240 12.999C331.897 12.9991 413.966 66.4406 468 150.19L468 448C468 453.523 463.523 458 458 458L22 458Z" fill="#E01919"/>
<path d="M469 410C474.523 410 479 414.477 479 420L479 717.81C422.24 801.559 336.032 855 239.5 855C142.968 855 56.7596 801.559 0 717.81L0 420C2.62117e-06 414.477 4.47715 410 10 410L469 410Z" fill="#0F0F0F"/>
<path d="M457 397C462.523 397 467 401.477 467 407L467 704.81C412.966 788.56 330.897 842.001 239 842.001C147.103 842.001 65.0342 788.559 11 704.81L11 407C11 401.477 15.4772 397 21 397L457 397Z" fill="#E9E9E9"/>
<rect x="479" y="660.001" width="12" height="479" transform="rotate(90 479 660.001)" fill="#0F0F0F"/>
<path d="M303 672.001C297.528 704.988 271.18 730.001 239.5 730.001C207.82 730.001 181.472 704.988 176 672.001H303Z" fill="#0F0F0F"/>
<path d="M296.786 672.001C291.812 700.777 267.859 722.597 239.059 722.597C210.258 722.597 186.305 700.777 181.331 672.001H296.786Z" fill="#D9D9D9"/>
<rect y="659.999" width="465" height="479" transform="rotate(-90 0 659.999)" fill="#121212"/>
<rect y="194.999" width="12" height="479" transform="rotate(-90 0 194.999)" fill="#0F0F0F"/>
<path d="M176 182.999C181.472 150.012 207.82 124.999 239.5 124.999C271.18 124.999 297.528 150.012 303 182.999L176 182.999Z" fill="#0F0F0F"/>
<rect y="339.999" width="64" height="479" transform="rotate(-90 0 339.999)" fill="#363333"/>
<rect y="432.999" width="64" height="479" transform="rotate(-90 0 432.999)" fill="#363333"/>
<rect y="527" width="64" height="479" transform="rotate(-90 0 527)" fill="#363333"/>
<rect y="621.999" width="64" height="479" transform="rotate(-90 0 621.999)" fill="#363333"/>
<path d="M182.214 182.999C187.188 154.223 211.141 132.403 239.941 132.403C268.742 132.403 292.695 154.223 297.669 182.999L182.214 182.999Z" fill="#D9D9D9"/>
</svg>
